<svg width="57" height="56" viewBox="0 0 57 56" fill="none" xmlns="http://www.w3.org/2000/svg">
<rect x="0.5" width="56" height="56" rx="28" fill="#27AAE1" fill-opacity="0.1"/>
<path d="M28.5 18C22.99 18 18.5 22.49 18.5 28C18.5 33.51 22.99 38 28.5 38C34.01 38 38.5 33.51 38.5 28C38.5 22.49 34.01 18 28.5 18ZM32.85 31.57C32.71 31.81 32.46 31.94 32.2 31.94C32.07 31.94 31.94 31.91 31.82 31.83L28.72 29.98C27.95 29.52 27.38 28.51 27.38 27.62V23.52C27.38 23.11 27.72 22.77 28.13 22.77C28.54 22.77 28.88 23.11 28.88 23.52V27.62C28.88 27.98 29.18 28.51 29.49 28.69L32.59 30.54C32.95 30.75 33.07 31.21 32.85 31.57Z" fill="#143881"/>
</svg>
