<svg width="25" height="25" viewBox="0 0 25 25" fill="none" xmlns="http://www.w3.org/2000/svg">
<g clip-path="url(#clip0_1233_28863)">
<path d="M24.5 17.75C24.5 18.1646 24.1642 18.5 23.75 18.5H3.06049L6.28024 21.7198C6.5733 22.0129 6.5733 22.4874 6.28024 22.7803C6.1338 22.9267 5.9418 23 5.74999 23C5.55817 23 5.36617 22.9267 5.21974 22.7803L0.719736 18.2803C0.426673 17.9872 0.426673 17.5127 0.719736 17.2198L5.21974 12.7198C5.5128 12.4267 5.98736 12.4267 6.28024 12.7198C6.57311 13.0129 6.5733 13.4874 6.28024 13.7803L3.06049 17H23.75C24.1642 17 24.5 17.3355 24.5 17.75ZM24.2802 6.7198L19.7802 2.2198C19.4872 1.92673 19.0126 1.92673 18.7197 2.2198C18.4269 2.51286 18.4267 2.98742 18.7197 3.2803L21.9395 6.50005H1.24999C0.835798 6.50005 0.499986 6.83548 0.499986 7.25005C0.499986 7.66461 0.835798 8.00005 1.24999 8.00005H21.9395L18.7197 11.2198C18.4267 11.5129 18.4267 11.9874 18.7197 12.2803C18.8662 12.4267 19.0582 12.5 19.25 12.5C19.4418 12.5 19.6338 12.4267 19.7802 12.2803L24.2802 7.7803C24.5733 7.48742 24.5733 7.01267 24.2802 6.7198Z" fill="black"/>
</g>
<defs>
<clipPath id="clip0_1233_28863">
<rect width="24" height="24" fill="white" transform="translate(0.5 0.5)"/>
</clipPath>
</defs>
</svg>
