<svg width="57" height="56" viewBox="0 0 57 56" fill="none" xmlns="http://www.w3.org/2000/svg">
<rect x="0.5" width="56" height="56" rx="28" fill="#27AAE1" fill-opacity="0.1"/>
<path d="M27.7031 27.2499V26.1483C27.7031 24.7988 27.2231 23.5589 26.4253 22.5905C25.5023 23.985 23.9189 24.9061 22.125 24.9061C20.318 24.9061 18.7247 23.9714 17.8041 22.5596C16.9903 23.5322 16.5 24.7843 16.5 26.1483V27.2499C16.5 27.638 16.815 27.953 17.2031 27.953H27C27.3881 27.953 27.7031 27.638 27.7031 27.2499Z" fill="#143881"/>
<path d="M22.125 23.5C24.1961 23.5 25.875 21.8211 25.875 19.75C25.875 17.6789 24.1961 16 22.125 16C20.0539 16 18.375 17.6789 18.375 19.75C18.375 21.8211 20.0539 23.5 22.125 23.5Z" fill="#143881"/>
<path d="M39.1645 34.5234C38.2533 35.9283 36.6708 36.8597 34.875 36.8597C33.0923 36.8597 31.5202 35.9419 30.6056 34.5544C29.7891 35.5275 29.2969 36.7819 29.2969 38.1487V39.2972C29.2969 39.6853 29.6119 40.0003 30 40.0003H39.7969C40.185 40.0003 40.5 39.6853 40.5 39.2972V38.1487C40.5 36.7678 39.9975 35.5013 39.1645 34.5234Z" fill="#143881"/>
<path d="M34.875 35.4531C36.9202 35.4531 38.5781 33.7952 38.5781 31.75C38.5781 29.7048 36.9202 28.0469 34.875 28.0469C32.8298 28.0469 31.1719 29.7048 31.1719 31.75C31.1719 33.7952 32.8298 35.4531 34.875 35.4531Z" fill="#143881"/>
<path d="M28.5 21.9531H33.4687C33.8565 21.9531 34.1719 22.2685 34.1719 22.6562V24.4275L33.8722 24.1278C33.5976 23.8532 33.1524 23.8532 32.8778 24.1278C32.6032 24.4024 32.6032 24.8476 32.8778 25.1222L34.3778 26.6222C34.5151 26.7595 34.695 26.8281 34.875 26.8281C35.055 26.8281 35.2349 26.7595 35.3722 26.6222L36.8722 25.1222C37.1467 24.8476 37.1467 24.4024 36.8722 24.1278C36.5976 23.8532 36.1524 23.8532 35.8778 24.1278L35.5781 24.4275V22.6562C35.5781 21.4931 34.6319 20.5469 33.4687 20.5469H28.5C28.1117 20.5469 27.7969 20.8617 27.7969 21.25C27.7969 21.6383 28.1117 21.9531 28.5 21.9531Z" fill="#143881"/>
<path d="M28.5 34.0469H23.5313C23.1436 34.0469 22.8281 33.7315 22.8281 33.3438V31.5725L23.1279 31.8722C23.2651 32.0095 23.4451 32.0781 23.625 32.0781C23.805 32.0781 23.9849 32.0095 24.1222 31.8722C24.3968 31.5976 24.3968 31.1524 24.1222 30.8778L22.6222 29.3778C22.3476 29.1032 21.9024 29.1032 21.6278 29.3778L20.1278 30.8778C19.8532 31.1524 19.8532 31.5976 20.1278 31.8722C20.4024 32.1468 20.8476 32.1468 21.1222 31.8722L21.4219 31.5725V33.3438C21.4219 34.5069 22.3682 35.4531 23.5313 35.4531H28.5C28.8883 35.4531 29.2031 35.1383 29.2031 34.75C29.2031 34.3617 28.8883 34.0469 28.5 34.0469Z" fill="#143881"/>
</svg>
