<svg width="57" height="56" viewBox="0 0 57 56" fill="none" xmlns="http://www.w3.org/2000/svg">
<rect x="0.5" width="56" height="56" rx="28" fill="#27AAE1" fill-opacity="0.1"/>
<g clip-path="url(#clip0_513_14295)">
<path d="M37.1201 24.45C36.0701 19.83 32.0401 17.75 28.5001 17.75C28.5001 17.75 28.5001 17.75 28.4901 17.75C24.9601 17.75 20.9201 19.82 19.8701 24.44C18.7001 29.6 21.8601 33.97 24.7201 36.72C25.7801 37.74 27.1401 38.25 28.5001 38.25C29.8601 38.25 31.2201 37.74 32.2701 36.72C35.1301 33.97 38.2901 29.61 37.1201 24.45ZM28.5001 29.46C26.7601 29.46 25.3501 28.05 25.3501 26.31C25.3501 24.57 26.7601 23.16 28.5001 23.16C30.2401 23.16 31.6501 24.57 31.6501 26.31C31.6501 28.05 30.2401 29.46 28.5001 29.46Z" fill="#143881"/>
</g>
<defs>
<clipPath id="clip0_513_14295">
<rect width="24" height="24" fill="white" transform="translate(16.5 16)"/>
</clipPath>
</defs>
</svg>
