<svg width="65" height="65" viewBox="0 0 65 65" fill="none" xmlns="http://www.w3.org/2000/svg">
<path d="M32.5 0.5C14.8254 0.5 0.5 14.8268 0.5 32.5C0.5 50.1732 14.8254 64.5 32.5 64.5C50.1746 64.5 64.5 50.1718 64.5 32.5C64.5 14.8282 50.1732 0.5 32.5 0.5ZM34.4371 46.7544V50.4587C34.4371 51.0366 33.9873 51.4571 33.408 51.4571H30.9389C30.3596 51.4571 29.8931 51.0366 29.8931 50.4587V47.0803C27.6204 46.9772 25.3282 46.4926 23.5931 45.8325C22.6531 45.476 22.1295 44.4692 22.3788 43.4944L22.7812 41.9263C22.9219 41.3763 23.2895 40.9167 23.7922 40.6591C24.2949 40.3973 24.8854 40.3708 25.4132 40.5728C27.0662 41.212 29.0186 41.6771 31.1032 41.6771C33.7575 41.6771 35.5748 40.6521 35.5748 38.7889C35.5748 37.0189 34.0848 35.9007 30.6367 34.7351C25.6527 33.0584 22.2395 30.73 22.2395 26.2111C22.2395 22.1128 25.1402 18.8987 30.0992 17.9197V14.5413C30.0992 13.9634 30.5936 13.4454 31.1729 13.4454H33.6419C34.2212 13.4454 34.646 13.9634 34.646 14.5413V17.5925C36.8142 17.6858 38.3795 18.0075 39.6885 18.4336C40.6786 18.7567 41.2635 19.7941 41.0031 20.8051L40.6494 22.2089C40.5115 22.7436 40.1578 23.1976 39.6732 23.4594C39.1885 23.7212 38.6162 23.7686 38.0926 23.5889C36.9033 23.1809 35.352 22.8105 33.3857 22.8105C30.3582 22.8105 29.3792 24.1153 29.3792 25.4201C29.3792 26.9576 31.0099 27.9351 34.969 29.4266C40.5115 31.3832 42.7382 33.9455 42.7382 38.1358C42.7368 42.2815 39.8082 45.8242 34.4371 46.7544Z" fill="#00A4A3"/>
</svg>
